<svg width="227" height="59" viewBox="0 0 227 59" fill="none" xmlns="http://www.w3.org/2000/svg">
<path d="M68.1749 22.32C70.5429 22.32 72.3669 22.912 73.6469 24.096C74.9269 25.248 75.7749 26.816 76.1909 28.8L75.4229 28.56L75.7589 27.792C76.1749 26.96 76.7989 26.128 77.6309 25.296C78.4949 24.432 79.5189 23.728 80.7029 23.184C81.8869 22.608 83.1509 22.32 84.4949 22.32C86.7029 22.32 88.4149 22.8 89.6309 23.76C90.8469 24.688 91.6949 25.952 92.1749 27.552C92.6549 29.12 92.8949 30.88 92.8949 32.832V45.552C92.8949 46.256 92.6709 46.848 92.2229 47.328C91.7749 47.776 91.1989 48 90.4949 48C89.8229 48 89.2469 47.776 88.7669 47.328C88.3189 46.848 88.0949 46.256 88.0949 45.552V32.88C88.0949 31.76 87.9349 30.736 87.6149 29.808C87.3269 28.88 86.7989 28.144 86.0309 27.6C85.2949 27.024 84.2709 26.736 82.9589 26.736C81.7109 26.736 80.5909 27.024 79.5989 27.6C78.6389 28.144 77.8869 28.88 77.3429 29.808C76.7989 30.736 76.5269 31.76 76.5269 32.88V45.552C76.5269 46.256 76.3029 46.848 75.8549 47.328C75.4069 47.776 74.8309 48 74.1269 48C73.4229 48 72.8469 47.776 72.3989 47.328C71.9509 46.848 71.7269 46.256 71.7269 45.552V32.832C71.7269 31.712 71.5669 30.688 71.2469 29.76C70.9589 28.832 70.4469 28.096 69.7109 27.552C68.9749 27.008 67.9509 26.736 66.6389 26.736C65.3909 26.736 64.2869 27.008 63.3269 27.552C62.3669 28.096 61.6149 28.832 61.0709 29.76C60.5589 30.688 60.3029 31.712 60.3029 32.832V45.552C60.3029 46.256 60.0629 46.848 59.5829 47.328C59.1349 47.776 58.5749 48 57.9029 48C57.1989 48 56.6229 47.776 56.1749 47.328C55.7269 46.848 55.5029 46.256 55.5029 45.552V25.2C55.5029 24.496 55.7269 23.92 56.1749 23.472C56.6229 22.992 57.1989 22.752 57.9029 22.752C58.5749 22.752 59.1349 22.992 59.5829 23.472C60.0629 23.92 60.3029 24.496 60.3029 25.2V28.032L59.3909 28.56C59.6149 27.856 59.9829 27.136 60.4949 26.4C61.0069 25.664 61.6469 24.992 62.4149 24.384C63.2149 23.776 64.0949 23.28 65.0549 22.896C66.0149 22.512 67.0549 22.32 68.1749 22.32ZM120.3 22.368C121.004 22.368 121.58 22.608 122.028 23.088C122.476 23.536 122.7 24.112 122.7 24.816V45.552C122.7 46.256 122.476 46.848 122.028 47.328C121.58 47.776 121.004 48 120.3 48C119.628 48 119.052 47.776 118.572 47.328C118.124 46.848 117.9 46.256 117.9 45.552V42.096L118.908 42.24C118.908 42.816 118.668 43.456 118.188 44.16C117.74 44.864 117.116 45.552 116.316 46.224C115.516 46.864 114.572 47.408 113.484 47.856C112.396 48.272 111.228 48.48 109.98 48.48C107.772 48.48 105.788 47.92 104.028 46.8C102.268 45.648 100.876 44.08 99.8522 42.096C98.8282 40.112 98.3162 37.856 98.3162 35.328C98.3162 32.736 98.8282 30.464 99.8522 28.512C100.876 26.528 102.252 24.976 103.98 23.856C105.74 22.736 107.692 22.176 109.836 22.176C111.212 22.176 112.476 22.4 113.628 22.848C114.812 23.296 115.836 23.872 116.7 24.576C117.564 25.28 118.22 26.032 118.668 26.832C119.148 27.6 119.388 28.336 119.388 29.04L117.9 29.184V24.816C117.9 24.144 118.124 23.568 118.572 23.088C119.052 22.608 119.628 22.368 120.3 22.368ZM110.508 44.064C112.012 44.064 113.34 43.68 114.492 42.912C115.644 42.144 116.54 41.104 117.18 39.792C117.82 38.448 118.14 36.96 118.14 35.328C118.14 33.664 117.82 32.176 117.18 30.864C116.54 29.552 115.644 28.512 114.492 27.744C113.34 26.976 112.012 26.592 110.508 26.592C109.036 26.592 107.724 26.976 106.572 27.744C105.452 28.512 104.556 29.552 103.884 30.864C103.244 32.176 102.924 33.664 102.924 35.328C102.924 36.96 103.244 38.448 103.884 39.792C104.556 41.104 105.452 42.144 106.572 42.912C107.724 43.68 109.036 44.064 110.508 44.064ZM142.433 22.176C144.705 22.176 146.465 22.656 147.713 23.616C148.961 24.544 149.825 25.808 150.305 27.408C150.817 28.976 151.073 30.736 151.073 32.688V45.552C151.073 46.256 150.833 46.848 150.353 47.328C149.905 47.776 149.345 48 148.673 48C147.969 48 147.393 47.776 146.945 47.328C146.497 46.848 146.273 46.256 146.273 45.552V32.736C146.273 31.584 146.113 30.56 145.793 29.664C145.473 28.736 144.913 28 144.113 27.456C143.345 26.88 142.257 26.592 140.849 26.592C139.537 26.592 138.385 26.88 137.393 27.456C136.401 28 135.617 28.736 135.041 29.664C134.497 30.56 134.225 31.584 134.225 32.736V45.552C134.225 46.256 133.985 46.848 133.505 47.328C133.057 47.776 132.497 48 131.825 48C131.121 48 130.545 47.776 130.097 47.328C129.649 46.848 129.425 46.256 129.425 45.552V25.2C129.425 24.496 129.649 23.92 130.097 23.472C130.545 22.992 131.121 22.752 131.825 22.752C132.497 22.752 133.057 22.992 133.505 23.472C133.985 23.92 134.225 24.496 134.225 25.2V27.888L133.361 28.368C133.585 27.664 133.969 26.96 134.513 26.256C135.089 25.52 135.777 24.848 136.577 24.24C137.377 23.6 138.273 23.104 139.265 22.752C140.257 22.368 141.313 22.176 142.433 22.176ZM162.249 45.552C162.249 46.256 162.025 46.848 161.577 47.328C161.129 47.776 160.553 48 159.849 48C159.177 48 158.601 47.776 158.121 47.328C157.673 46.848 157.449 46.256 157.449 45.552V25.008C157.449 24.304 157.673 23.728 158.121 23.28C158.601 22.8 159.177 22.56 159.849 22.56C160.553 22.56 161.129 22.8 161.577 23.28C162.025 23.728 162.249 24.304 162.249 25.008V45.552ZM159.801 19.392C158.873 19.392 158.201 19.232 157.785 18.912C157.369 18.56 157.161 17.984 157.161 17.184V16.416C157.161 15.616 157.385 15.056 157.833 14.736C158.281 14.416 158.953 14.256 159.849 14.256C160.809 14.256 161.497 14.432 161.913 14.784C162.329 15.104 162.537 15.648 162.537 16.416V17.184C162.537 18.016 162.313 18.592 161.865 18.912C161.449 19.232 160.761 19.392 159.801 19.392ZM189.394 22.368C190.098 22.368 190.674 22.608 191.122 23.088C191.57 23.536 191.794 24.112 191.794 24.816V45.552C191.794 46.256 191.57 46.848 191.122 47.328C190.674 47.776 190.098 48 189.394 48C188.722 48 188.146 47.776 187.666 47.328C187.218 46.848 186.994 46.256 186.994 45.552V42.096L188.002 42.24C188.002 42.816 187.762 43.456 187.282 44.16C186.834 44.864 186.21 45.552 185.41 46.224C184.61 46.864 183.666 47.408 182.578 47.856C181.49 48.272 180.322 48.48 179.074 48.48C176.866 48.48 174.882 47.92 173.122 46.8C171.362 45.648 169.97 44.08 168.946 42.096C167.922 40.112 167.41 37.856 167.41 35.328C167.41 32.736 167.922 30.464 168.946 28.512C169.97 26.528 171.346 24.976 173.074 23.856C174.834 22.736 176.786 22.176 178.93 22.176C180.306 22.176 181.57 22.4 182.722 22.848C183.906 23.296 184.93 23.872 185.794 24.576C186.658 25.28 187.314 26.032 187.762 26.832C188.242 27.6 188.482 28.336 188.482 29.04L186.994 29.184V24.816C186.994 24.144 187.218 23.568 187.666 23.088C188.146 22.608 188.722 22.368 189.394 22.368ZM179.602 44.064C181.106 44.064 182.434 43.68 183.586 42.912C184.738 42.144 185.634 41.104 186.274 39.792C186.914 38.448 187.234 36.96 187.234 35.328C187.234 33.664 186.914 32.176 186.274 30.864C185.634 29.552 184.738 28.512 183.586 27.744C182.434 26.976 181.106 26.592 179.602 26.592C178.13 26.592 176.818 26.976 175.666 27.744C174.546 28.512 173.65 29.552 172.978 30.864C172.338 32.176 172.018 33.664 172.018 35.328C172.018 36.96 172.338 38.448 172.978 39.792C173.65 41.104 174.546 42.144 175.666 42.912C176.818 43.68 178.13 44.064 179.602 44.064Z" fill="#FF8C42"/>
<path d="M31.7275 9.01357C33.1794 8.87865 34.5307 9.76097 34.9018 11.1546L36.2324 16.1493C19.3753 16.6367 7.97198 27.7428 7.2586 44.2876L2.14273 42.8869C0.730335 42.4999 -0.147469 41.14 0.020546 39.7003C1.89655 23.6535 15.3834 10.5377 31.7275 9.01357ZM36.9808 18.9552L45.952 52.6403C46.0172 52.885 46.016 53.1424 45.9484 53.3865C45.8808 53.6306 45.7492 53.8527 45.567 54.0305C45.3847 54.2083 45.1582 54.3355 44.9103 54.3992C44.6625 54.4629 44.4019 54.4609 44.1551 54.3934L10.1032 45.0643C10.4868 29.5403 21.1615 19.1327 36.9808 18.9587V18.9552ZM34.5011 45.9262C35.0697 45.9262 35.6256 45.7596 36.0984 45.4475C36.5712 45.1354 36.9397 44.6918 37.1573 44.1727C37.3749 43.6537 37.4318 43.0826 37.3209 42.5316C37.21 41.9806 36.9361 41.4745 36.5341 41.0772C36.132 40.68 35.6197 40.4095 35.062 40.2999C34.5042 40.1903 33.9262 40.2465 33.4008 40.4615C32.8754 40.6765 32.4264 41.0406 32.1105 41.5077C31.7946 41.9748 31.626 42.524 31.626 43.0858C31.626 43.8391 31.9289 44.5616 32.4681 45.0943C33.0072 45.6269 33.7385 45.9262 34.5011 45.9262ZM30.1884 32.434C30.757 32.434 31.3129 32.2674 31.7857 31.9553C32.2585 31.6432 32.627 31.1996 32.8447 30.6806C33.0623 30.1615 33.1192 29.5904 33.0083 29.0394C32.8973 28.4884 32.6235 27.9823 32.2214 27.5851C31.8193 27.1878 31.307 26.9173 30.7493 26.8077C30.1916 26.6981 29.6135 26.7543 29.0882 26.9693C28.5628 27.1843 28.1138 27.5484 27.7978 28.0155C27.4819 28.4826 27.3133 29.0318 27.3133 29.5936C27.3133 30.3469 27.6162 31.0694 28.1554 31.6021C28.6946 32.1348 29.4259 32.434 30.1884 32.434ZM20.8443 41.6655C21.413 41.6655 21.9688 41.4989 22.4417 41.1868C22.9145 40.8747 23.283 40.4311 23.5006 39.9121C23.7182 39.393 23.7751 38.8219 23.6642 38.2709C23.5533 37.7199 23.2794 37.2138 22.8773 36.8166C22.4752 36.4193 21.963 36.1488 21.4052 36.0392C20.8475 35.9296 20.2694 35.9858 19.7441 36.2008C19.2187 36.4158 18.7697 36.7799 18.4538 37.247C18.1379 37.7141 17.9692 38.2633 17.9692 38.8251C17.9692 39.5784 18.2722 40.3009 18.8113 40.8336C19.3505 41.3663 20.0818 41.6655 20.8443 41.6655Z" fill="#FF8C42"/>
</svg>
